<svg width="198" height="34" viewBox="0 0 198 34" fill="none" xmlns="http://www.w3.org/2000/svg">
<path d="M17.4375 0L21.3525 11.7467L34.0215 11.7467L23.772 19.0066L27.687 30.7533L17.4375 23.4934L7.18799 30.7533L11.103 19.0066L0.853453 11.7467L13.5225 11.7467L17.4375 0Z" fill="#FEA255"/>
<path d="M58.125 0L62.04 11.7467L74.709 11.7467L64.4595 19.0066L68.3745 30.7533L58.125 23.4934L47.8755 30.7533L51.7905 19.0066L41.541 11.7467L54.21 11.7467L58.125 0Z" fill="#FEA255"/>
<path d="M98.8125 0L102.727 11.7467L115.397 11.7467L105.147 19.0066L109.062 30.7533L98.8125 23.4934L88.563 30.7533L92.478 19.0066L82.2285 11.7467L94.8975 11.7467L98.8125 0Z" fill="#FEA255"/>
<path d="M139.5 0L143.415 11.7467L156.084 11.7467L145.835 19.0066L149.75 30.7533L139.5 23.4934L129.25 30.7533L133.165 19.0066L122.916 11.7467L135.585 11.7467L139.5 0Z" fill="#FEA255"/>
<mask id="mask0_89_2654" style="mask-type:alpha" maskUnits="userSpaceOnUse" x="163" y="0" width="34" height="31">
<path d="M180.188 0L184.102 11.7467L196.772 11.7467L186.522 19.0066L190.437 30.7533L180.188 23.4934L169.938 30.7533L173.853 19.0066L163.603 11.7467L176.273 11.7467L180.188 0Z" fill="#FEA255"/>
</mask>
<g mask="url(#mask0_89_2654)">
<rect x="160.812" y="-5.6665" width="38.75" height="44.3889" fill="#D9D9D9"/>
<rect x="163" y="-4" width="35" height="42" fill="#FEA255"/>
</g>
</svg>
