<svg width="33" height="27" viewBox="0 0 33 27" fill="none" xmlns="http://www.w3.org/2000/svg">
<path d="M32.597 14.4252L20.2249 26.6099C19.9622 26.8601 19.611 27 19.2455 27C18.88 27 18.5288 26.8601 18.266 26.6099C18.0079 26.3532 17.8631 26.0066 17.8631 25.6453C17.8631 25.284 18.0079 24.9373 18.266 24.6807L28.3012 14.8144H1.37468C1.01009 14.8144 0.660436 14.6718 0.402634 14.4179C0.144832 14.164 0 13.8196 0 13.4605C0 13.1015 0.144832 12.7571 0.402634 12.5032C0.660436 12.2493 1.01009 12.1067 1.37468 12.1067H28.3012L18.266 2.24043C18.0468 1.97738 17.9348 1.64343 17.9517 1.30354C17.9687 0.963651 18.1134 0.642122 18.3577 0.401494C18.6021 0.160866 18.9285 0.0183447 19.2737 0.0016515C19.6188 -0.0150417 19.9579 0.0952869 20.2249 0.311177L32.597 12.4959C32.8552 12.7526 33 13.0993 33 13.4605C33 13.8218 32.8552 14.1685 32.597 14.4252V14.4252Z" fill="#FFFEFE"/>
</svg>
