<svg width="23" height="23" viewBox="0 0 23 23" fill="none" xmlns="http://www.w3.org/2000/svg">
<path d="M11.5 0C9.22552 0 7.00211 0.674463 5.11095 1.9381C3.21978 3.20173 1.7458 4.99779 0.87539 7.09914C0.00498277 9.20049 -0.222756 11.5128 0.220974 13.7435C0.664704 15.9743 1.75997 18.0234 3.36828 19.6317C4.97658 21.24 7.02568 22.3353 9.25646 22.779C11.4872 23.2228 13.7995 22.995 15.9009 22.1246C18.0022 21.2542 19.7983 19.7802 21.0619 17.8891C22.3255 15.9979 23 13.7745 23 11.5C22.9942 8.4518 21.7807 5.53013 19.6253 3.37473C17.4699 1.21933 14.5482 0.00584507 11.5 0V0ZM16.9736 9.4875L10.4938 15.6798C10.3262 15.8374 10.1045 15.9245 9.87452 15.9231C9.76211 15.9247 9.65049 15.904 9.54611 15.8623C9.44172 15.8205 9.34664 15.7585 9.26635 15.6798L6.02645 12.5837C5.93658 12.5052 5.8635 12.4095 5.81159 12.3021C5.75968 12.1948 5.73002 12.078 5.72438 11.9589C5.71874 11.8398 5.73725 11.7207 5.77879 11.6089C5.82033 11.4971 5.88405 11.3949 5.96611 11.3084C6.04817 11.2218 6.14688 11.1528 6.25631 11.1054C6.36573 11.058 6.48361 11.0332 6.60287 11.0325C6.72212 11.0318 6.84029 11.0552 6.95026 11.1013C7.06023 11.1475 7.15973 11.2154 7.24279 11.301L9.87452 13.8111L15.7572 8.20481C15.9292 8.05474 16.1526 7.97697 16.3806 7.98776C16.6086 7.99855 16.8236 8.09706 16.9807 8.26269C17.1377 8.42833 17.2247 8.64826 17.2234 8.87652C17.222 9.10479 17.1325 9.3237 16.9736 9.4875Z" fill="#2FCC8C"/>
</svg>
