<svg width="22" height="12" viewBox="0 0 22 12" fill="none" xmlns="http://www.w3.org/2000/svg">
<path d="M20.5621 11.9976C20.1818 11.996 19.8172 11.8512 19.5461 11.5939L10.9995 3.34794L2.45291 11.5939C2.18344 11.8539 1.81796 12 1.43688 12C1.0558 12 0.690319 11.8539 0.420852 11.5939C0.151385 11.334 0 10.9813 0 10.6137C0 10.246 0.151385 9.89335 0.420852 9.63336L9.98346 0.407049C10.1167 0.278029 10.2751 0.175657 10.4494 0.105807C10.6238 0.0359561 10.8107 0 10.9995 0C11.1883 0 11.3752 0.0359561 11.5496 0.105807C11.7239 0.175657 11.8822 0.278029 12.0155 0.407049L21.5781 9.63336C21.7118 9.76193 21.8179 9.91471 21.8903 10.0829C21.9627 10.2512 22 10.4315 22 10.6137C22 10.7958 21.9627 10.9762 21.8903 11.1444C21.8179 11.3126 21.7118 11.4654 21.5781 11.5939C21.3069 11.8512 20.9424 11.996 20.5621 11.9976V11.9976Z" fill="#200F00"/>
</svg>
