<svg width="24" height="23" viewBox="0 0 24 23" fill="none" xmlns="http://www.w3.org/2000/svg">
<path d="M23.9327 19.6476L22.9474 16.0002L19.0179 1.39845C18.8872 0.91481 18.5686 0.502594 18.1323 0.252457C17.696 0.00231951 17.1776 -0.0652567 16.6911 0.0645885L13.0229 1.04433L12.9042 1.07974C12.7272 0.848938 12.4992 0.661787 12.2377 0.532816C11.9762 0.403845 11.6884 0.336526 11.3965 0.336083H7.59767C7.26349 0.336977 6.93562 0.426632 6.64797 0.595774C6.36031 0.426632 6.03244 0.336977 5.69826 0.336083H1.89942C1.39566 0.336083 0.912537 0.535066 0.556327 0.889259C0.200117 1.24345 0 1.72384 0 2.22474V21.1113C0 21.6122 0.200117 22.0926 0.556327 22.4468C0.912537 22.801 1.39566 23 1.89942 23H5.69826C6.03244 22.9991 6.36031 22.9094 6.64797 22.7403C6.93562 22.9094 7.26349 22.9991 7.59767 23H11.3965C11.9003 23 12.3834 22.801 12.7396 22.4468C13.0958 22.0926 13.2959 21.6122 13.2959 21.1113V9.35443L15.6108 17.9478L16.5962 21.5953C16.7037 21.9987 16.9426 22.3553 17.2755 22.6094C17.6084 22.8635 18.0165 23.0009 18.4362 23C18.6001 22.9972 18.7632 22.9774 18.923 22.941L22.5912 21.9612C22.8325 21.8968 23.0586 21.7854 23.2562 21.6334C23.4539 21.4814 23.6193 21.2919 23.7427 21.0759C23.8693 20.8628 23.9514 20.6264 23.984 20.381C24.0167 20.1356 23.9992 19.8862 23.9327 19.6476V19.6476ZM14.7442 7.43036L18.4125 6.45062L20.8699 15.5752L17.2016 16.5549L14.7442 7.43036ZM17.1779 1.89423L17.9258 4.62098L14.2575 5.60072L13.5096 2.87397L17.1779 1.89423ZM11.3965 2.22474V16.3897H7.59767V2.22474H11.3965ZM5.69826 2.22474V5.05773H1.89942V2.22474H5.69826ZM1.89942 21.1113V6.94639H5.69826V21.1113H1.89942ZM11.3965 21.1113H7.59767V18.2783H11.3965V21.1113ZM22.1045 20.1316L18.4362 21.1113L17.6883 18.3728L21.3685 17.393L22.1045 20.1316V20.1316Z" fill="#200F00"/>
</svg>
