<svg width="33" height="28" viewBox="0 0 33 28" fill="none" xmlns="http://www.w3.org/2000/svg">
<path d="M30.4615 0H2.53846C1.86522 0 1.21955 0.268181 0.743498 0.745546C0.267444 1.22291 0 1.87036 0 2.54545V25.4545C0 26.1296 0.267444 26.7771 0.743498 27.2545C1.21955 27.7318 1.86522 28 2.53846 28H30.4615C31.1348 28 31.7804 27.7318 32.2565 27.2545C32.7326 26.7771 33 26.1296 33 25.4545V2.54545C33 1.87036 32.7326 1.22291 32.2565 0.745546C31.7804 0.268181 31.1348 0 30.4615 0ZM30.4615 25.4545H2.53846V2.54545H30.4615V25.4545ZM24.1154 7.63636C24.1154 9.66165 23.3131 11.604 21.8849 13.0361C20.4567 14.4682 18.5197 15.2727 16.5 15.2727C14.4803 15.2727 12.5433 14.4682 11.1151 13.0361C9.68695 11.604 8.88461 9.66165 8.88461 7.63636C8.88461 7.29882 9.01834 6.97509 9.25636 6.73641C9.49439 6.49773 9.81722 6.36364 10.1538 6.36364C10.4905 6.36364 10.8133 6.49773 11.0513 6.73641C11.2894 6.97509 11.4231 7.29882 11.4231 7.63636C11.4231 8.98656 11.958 10.2814 12.9101 11.2362C13.8622 12.1909 15.1535 12.7273 16.5 12.7273C17.8465 12.7273 19.1378 12.1909 20.0899 11.2362C21.042 10.2814 21.5769 8.98656 21.5769 7.63636C21.5769 7.29882 21.7106 6.97509 21.9487 6.73641C22.1867 6.49773 22.5095 6.36364 22.8462 6.36364C23.1828 6.36364 23.5056 6.49773 23.7436 6.73641C23.9817 6.97509 24.1154 7.29882 24.1154 7.63636Z" fill="#7F7F7F"/>
</svg>
