<svg width="22" height="21" viewBox="0 0 22 21" fill="none" xmlns="http://www.w3.org/2000/svg">
<path d="M21.5926 4.41875L13.7354 0.0972948C13.6193 0.033468 13.4891 0 13.3566 0C13.2242 0 13.0939 0.033468 12.9779 0.0972948L5.12063 4.41875C4.99744 4.48658 4.89471 4.58623 4.82316 4.70729C4.75161 4.82836 4.71387 4.96641 4.71387 5.10704C4.71387 5.24767 4.75161 5.38572 4.82316 5.50679C4.89471 5.62786 4.99744 5.72751 5.12063 5.79533L12.5709 9.89286V18.315L10.1854 17.0028L9.428 18.3786L12.9779 20.3311C13.0939 20.3951 13.2242 20.4287 13.3566 20.4287C13.4891 20.4287 13.6194 20.3951 13.7354 20.3311L21.5926 16.0097C21.7159 15.9419 21.8187 15.8423 21.8903 15.7212C21.9618 15.6001 21.9996 15.462 21.9997 15.3214V5.10704C21.9996 4.96639 21.9618 4.82832 21.8903 4.70725C21.8187 4.58618 21.7159 4.48655 21.5926 4.41875ZM13.3566 1.68288L19.5835 5.10704L13.3566 8.53121L7.12974 5.10704L13.3566 1.68288ZM20.4282 14.857L14.1424 18.3142V9.89207L20.4282 6.43491V14.857Z" fill="#200F00"/>
<path d="M6.28574 10.2143H0V8.64288H6.28574V10.2143ZM7.85718 16.5001H1.57144V14.9286H7.85718V16.5001ZM9.42861 13.3572H3.14287V11.7858H9.42861V13.3572Z" fill="#200F00"/>
</svg>
