<svg width="28" height="26" viewBox="0 0 28 26" fill="none" xmlns="http://www.w3.org/2000/svg">
<path d="M27.4822 5.62383L17.4822 0.123829C17.3345 0.0425953 17.1687 0 17.0002 0C16.8316 0 16.6658 0.0425953 16.5182 0.123829L6.51818 5.62383C6.36139 5.71015 6.23064 5.83698 6.13958 5.99106C6.04852 6.14515 6.00049 6.32085 6.00049 6.49983C6.00049 6.67881 6.04852 6.85451 6.13958 7.0086C6.23064 7.16268 6.36139 7.2895 6.51818 7.37583L16.0002 12.5908V23.3098L12.9642 21.6398L12.0002 23.3908L16.5182 25.8758C16.6658 25.9572 16.8316 25.9999 17.0002 25.9999C17.1687 25.9999 17.3346 25.9572 17.4822 25.8758L27.4822 20.3758C27.639 20.2895 27.7698 20.1627 27.8609 20.0087C27.9521 19.8546 28.0001 19.6788 28.0002 19.4998V6.49983C28.0001 6.32082 27.9521 6.14509 27.8609 5.99101C27.7698 5.83692 27.639 5.71011 27.4822 5.62383ZM17.0002 2.14183L24.9252 6.49983L17.0002 10.8578L9.07518 6.49983L17.0002 2.14183ZM26.0002 18.9088L18.0002 23.3088V12.5898L26.0002 8.18983V18.9088Z" fill="black"/>
<path d="M8 12.9998H0V10.9998H8V12.9998ZM10 20.9998H2V18.9998H10V20.9998ZM12 16.9998H4V14.9998H12V16.9998Z" fill="black"/>
</svg>
