<svg width="23" height="23" viewBox="0 0 23 23" fill="none" xmlns="http://www.w3.org/2000/svg">
<path d="M21.16 0H1.84C1.352 0 0.88399 0.193857 0.538923 0.538923C0.193857 0.88399 0 1.352 0 1.84V21.16C0 21.648 0.193857 22.116 0.538923 22.4611C0.88399 22.8061 1.352 23 1.84 23H21.16C21.648 23 22.116 22.8061 22.4611 22.4611C22.8061 22.116 23 21.648 23 21.16V1.84C23 1.352 22.8061 0.88399 22.4611 0.538923C22.116 0.193857 21.648 0 21.16 0ZM7.82 17.02C7.82 17.264 7.72307 17.498 7.55054 17.6705C7.378 17.8431 7.144 17.94 6.9 17.94C6.656 17.94 6.422 17.8431 6.24946 17.6705C6.07693 17.498 5.98 17.264 5.98 17.02V9.66C5.98 9.416 6.07693 9.182 6.24946 9.00946C6.422 8.83693 6.656 8.74 6.9 8.74C7.144 8.74 7.378 8.83693 7.55054 9.00946C7.72307 9.182 7.82 9.416 7.82 9.66V17.02ZM6.9 7.36C6.62706 7.36 6.36025 7.27906 6.13331 7.12743C5.90637 6.97579 5.7295 6.76027 5.62505 6.5081C5.5206 6.25594 5.49327 5.97847 5.54652 5.71078C5.59976 5.44308 5.7312 5.19719 5.92419 5.00419C6.11719 4.8112 6.36308 4.67976 6.63078 4.62652C6.89847 4.57327 7.17594 4.6006 7.4281 4.70505C7.68027 4.8095 7.89579 4.98637 8.04743 5.21331C8.19906 5.44025 8.28 5.70706 8.28 5.98C8.28 6.346 8.13461 6.69701 7.87581 6.95581C7.61701 7.21461 7.266 7.36 6.9 7.36V7.36ZM17.94 17.02C17.94 17.264 17.8431 17.498 17.6705 17.6705C17.498 17.8431 17.264 17.94 17.02 17.94C16.776 17.94 16.542 17.8431 16.3695 17.6705C16.1969 17.498 16.1 17.264 16.1 17.02V12.88C16.1 12.27 15.8577 11.685 15.4263 11.2537C14.995 10.8223 14.41 10.58 13.8 10.58C13.19 10.58 12.605 10.8223 12.1737 11.2537C11.7423 11.685 11.5 12.27 11.5 12.88V17.02C11.5 17.264 11.4031 17.498 11.2305 17.6705C11.058 17.8431 10.824 17.94 10.58 17.94C10.336 17.94 10.102 17.8431 9.92946 17.6705C9.75693 17.498 9.66 17.264 9.66 17.02V9.66C9.65936 9.43359 9.74224 9.21489 9.89277 9.04576C10.0433 8.87664 10.2509 8.76895 10.4759 8.74333C10.7008 8.7177 10.9273 8.77592 11.112 8.90686C11.2968 9.03779 11.4267 9.23225 11.477 9.453C12.0995 9.03101 12.8252 8.78656 13.5762 8.7459C14.3272 8.70524 15.075 8.86991 15.7394 9.22223C16.4039 9.57455 16.9598 10.1012 17.3475 10.7456C17.7352 11.3901 17.94 12.1279 17.94 12.88V17.02Z" fill="#FEA255"/>
</svg>
