<svg width="37" height="28" viewBox="0 0 37 28" fill="none" xmlns="http://www.w3.org/2000/svg">
<path d="M37 14C37 14.4126 36.8376 14.8082 36.5485 15.0999C36.2593 15.3917 35.8672 15.5556 35.4583 15.5556H1.54167C1.13279 15.5556 0.740663 15.3917 0.451544 15.0999C0.162425 14.8082 0 14.4126 0 14C0 13.5874 0.162425 13.1918 0.451544 12.9001C0.740663 12.6083 1.13279 12.4444 1.54167 12.4444H35.4583C35.8672 12.4444 36.2593 12.6083 36.5485 12.9001C36.8376 13.1918 37 13.5874 37 14ZM1.54167 3.11111H35.4583C35.8672 3.11111 36.2593 2.94722 36.5485 2.6555C36.8376 2.36378 37 1.96811 37 1.55556C37 1.143 36.8376 0.747335 36.5485 0.455612C36.2593 0.163889 35.8672 0 35.4583 0H1.54167C1.13279 0 0.740663 0.163889 0.451544 0.455612C0.162425 0.747335 0 1.143 0 1.55556C0 1.96811 0.162425 2.36378 0.451544 2.6555C0.740663 2.94722 1.13279 3.11111 1.54167 3.11111ZM35.4583 24.8889H1.54167C1.13279 24.8889 0.740663 25.0528 0.451544 25.3445C0.162425 25.6362 0 26.0319 0 26.4444C0 26.857 0.162425 27.2527 0.451544 27.5444C0.740663 27.8361 1.13279 28 1.54167 28H35.4583C35.8672 28 36.2593 27.8361 36.5485 27.5444C36.8376 27.2527 37 26.857 37 26.4444C37 26.0319 36.8376 25.6362 36.5485 25.3445C36.2593 25.0528 35.8672 24.8889 35.4583 24.8889Z" fill="black"/>
</svg>
