<svg width="38" height="38" viewBox="0 0 38 38" fill="none" xmlns="http://www.w3.org/2000/svg">
<path d="M34.4373 29.6875C34.4373 30.0025 34.3122 30.3045 34.0895 30.5272C33.8668 30.7499 33.5648 30.875 33.2498 30.875C32.9349 30.875 32.6329 30.7499 32.4102 30.5272C32.1875 30.3045 32.0623 30.0025 32.0623 29.6875C32.0584 26.2243 30.6809 22.9041 28.2321 20.4553C25.7832 18.0064 22.463 16.6289 18.9998 16.625H7.61469L12.7209 21.7164C12.9439 21.9416 13.069 22.2456 13.069 22.5625C13.069 22.8794 12.9439 23.1835 12.7209 23.4086C12.494 23.6281 12.1906 23.7508 11.8748 23.7508C11.5591 23.7508 11.2557 23.6281 11.0288 23.4086L3.90375 16.2836C3.68076 16.0585 3.55566 15.7544 3.55566 15.4375C3.55566 15.1206 3.68076 14.8166 3.90375 14.5914L11.0288 7.46642C11.2595 7.27706 11.5524 7.18029 11.8505 7.19493C12.1486 7.20957 12.4307 7.33458 12.6417 7.54564C12.8528 7.7567 12.9778 8.03872 12.9924 8.33685C13.0071 8.63497 12.9103 8.92788 12.7209 9.15861L7.61469 14.25H18.9998C23.0917 14.2579 27.0137 15.8868 29.9071 18.7802C32.8005 21.6736 34.4295 25.5956 34.4373 29.6875Z" fill="black"/>
</svg>
