<svg width="30" height="28" viewBox="0 0 30 28" fill="none" xmlns="http://www.w3.org/2000/svg">
<path d="M29.7987 26.2498C27.6726 22.661 24.2694 19.9674 20.2415 18.6855C22.1721 17.5605 23.6725 15.8456 24.512 13.8042C25.3515 11.7627 25.4837 9.50762 24.8884 7.38537C24.2931 5.26312 23.0031 3.39108 21.2167 2.05685C19.4303 0.722621 17.2462 0 15 0C12.7538 0 10.5697 0.722621 8.7833 2.05685C6.99688 3.39108 5.70692 5.26312 5.11161 7.38537C4.51629 9.50762 4.64854 11.7627 5.48804 13.8042C6.32754 15.8456 7.82785 17.5605 9.75849 18.6855C5.73065 19.9674 2.32742 22.661 0.201286 26.2498C0.112109 26.3766 0.0506528 26.5201 0.0207805 26.6712C-0.00909173 26.8224 -0.00673478 26.978 0.0277032 27.1282C0.0621411 27.2784 0.127916 27.42 0.220894 27.5442C0.313872 27.6683 0.432045 27.7722 0.567985 27.8494C0.703926 27.9266 0.854697 27.9755 1.01082 27.9929C1.16695 28.0102 1.32506 27.9958 1.47521 27.9504C1.62537 27.9051 1.76432 27.8298 1.88335 27.7292C2.00238 27.6287 2.0989 27.5052 2.16685 27.3663C3.46923 25.1612 5.34051 23.3304 7.59296 22.0577C9.84542 20.7849 12.3999 20.1149 15 20.1149C17.6001 20.1149 20.1546 20.7849 22.407 22.0577C24.6595 23.3304 26.5308 25.1612 27.8331 27.3663C27.9011 27.5052 27.9976 27.6287 28.1166 27.7292C28.2357 27.8298 28.3746 27.9051 28.5248 27.9504C28.6749 27.9958 28.833 28.0102 28.9892 27.9929C29.1453 27.9755 29.2961 27.9266 29.432 27.8494C29.568 27.7722 29.6861 27.6683 29.7791 27.5442C29.8721 27.42 29.9379 27.2784 29.9723 27.1282C30.0067 26.978 30.0091 26.8224 29.9792 26.6712C29.9493 26.5201 29.8879 26.3766 29.7987 26.2498ZM7.02379 10.0605C7.02379 8.51468 7.49159 7.00362 8.36802 5.71836C9.24446 4.43309 10.4902 3.43135 11.9476 2.83981C13.4051 2.24827 15.0088 2.0935 16.5561 2.39506C18.1033 2.69663 19.5245 3.44099 20.64 4.53401C21.7555 5.62704 22.5152 7.01964 22.8229 8.53571C23.1307 10.0518 22.9728 11.6232 22.3691 13.0513C21.7654 14.4794 20.743 15.7001 19.4313 16.5589C18.1197 17.4176 16.5775 17.876 15 17.876C12.8846 17.876 10.8558 17.0526 9.35997 15.5869C7.86414 14.1212 7.02379 12.1333 7.02379 10.0605Z" fill="#7F7F7F"/>
</svg>
