<svg width="23" height="23" viewBox="0 0 23 23" fill="none" xmlns="http://www.w3.org/2000/svg">
<path d="M23 6.94309V11.2825C23 11.5127 22.9068 11.7334 22.7409 11.8962C22.575 12.059 22.35 12.1504 22.1154 12.1504C20.2675 12.1552 18.4461 11.7196 16.8077 10.8811V14.7541C16.8079 16.3226 16.352 17.8587 15.4936 19.182C14.6352 20.5052 13.4098 21.5608 11.9613 22.2248C10.5129 22.8888 8.90137 23.1337 7.31603 22.9306C5.73069 22.7276 4.23728 22.0851 3.01108 21.0786C1.78488 20.072 0.876781 18.7432 0.393364 17.248C-0.0900533 15.7529 -0.128726 14.1535 0.281885 12.6376C0.692496 11.1216 1.53535 9.75205 2.71152 8.6896C3.88769 7.62714 5.34837 6.91589 6.92212 6.63933C7.04838 6.6171 7.17807 6.62208 7.30218 6.65393C7.42629 6.68577 7.54186 6.74372 7.64087 6.82375C7.74292 6.90457 7.82485 7.00715 7.88042 7.12371C7.93599 7.24026 7.96373 7.36771 7.96154 7.49637V12.0094C7.96201 12.1737 7.91431 12.3347 7.82413 12.4732C7.73394 12.6117 7.60508 12.7218 7.45288 12.7905C7.09589 12.9573 6.79101 13.215 6.57 13.5366C6.34899 13.8583 6.21994 14.2323 6.19628 14.6195C6.17262 15.0068 6.25522 15.3932 6.43547 15.7384C6.61573 16.0837 6.88706 16.3753 7.22118 16.5828C7.55531 16.7902 7.94003 16.906 8.33526 16.918C8.73049 16.9301 9.12178 16.8379 9.46837 16.6512C9.81497 16.4644 10.1042 16.1899 10.3059 15.8563C10.5077 15.5226 10.6145 15.142 10.6154 14.7541V0.867886C10.6154 0.637708 10.7086 0.416958 10.8745 0.254198C11.0404 0.0914377 11.2654 0 11.5 0H15.9231C16.1577 0 16.3827 0.0914377 16.5486 0.254198C16.7145 0.416958 16.8077 0.637708 16.8077 0.867886C16.8077 2.24895 17.3669 3.57345 18.3623 4.55001C19.3577 5.52658 20.7077 6.0752 22.1154 6.0752C22.35 6.0752 22.575 6.16664 22.7409 6.3294C22.9068 6.49216 23 6.71291 23 6.94309Z" fill="#FEA255"/>
</svg>
