<svg width="29" height="23" viewBox="0 0 29 23" fill="none" xmlns="http://www.w3.org/2000/svg">
<path d="M28.2621 3.85959C28.1431 3.3756 27.9101 2.92808 27.5832 2.5554C27.2562 2.18271 26.845 1.89597 26.3848 1.71975C21.9571 -0.0131251 14.8884 2.92456e-06 14.5 2.92456e-06C14.1116 2.92456e-06 7.04286 -0.0131251 2.61518 1.71975C2.15499 1.89597 1.74379 2.18271 1.41684 2.5554C1.0899 2.92808 0.856941 3.3756 0.737947 3.85959C0.401339 5.15925 0 7.54852 0 11.5C0 15.4515 0.401339 17.8408 0.737947 19.1404C0.856941 19.6244 1.0899 20.0719 1.41684 20.4446C1.74379 20.8173 2.15499 21.104 2.61518 21.2803C6.86161 22.9475 13.5161 23 14.4094 23H14.5906C15.4839 23 22.1384 22.9475 26.3848 21.2803C26.845 21.104 27.2562 20.8173 27.5832 20.4446C27.9101 20.0719 28.1431 19.6244 28.2621 19.1404C28.5987 17.8408 29 15.4515 29 11.5C29 7.54852 28.5987 5.15925 28.2621 3.85959V3.85959ZM18.9277 11.9332L12.7134 16.1341C12.631 16.1956 12.5309 16.2279 12.4286 16.226C12.3428 16.2228 12.2588 16.2004 12.1826 16.1604C12.0998 16.1167 12.0306 16.0507 11.9826 15.9696C11.9347 15.8885 11.9098 15.7955 11.9107 15.7009V7.29909C11.9098 7.20451 11.9347 7.11151 11.9826 7.03041C12.0306 6.9493 12.0998 6.88326 12.1826 6.83961C12.2651 6.79495 12.3581 6.77381 12.4516 6.77843C12.545 6.78306 12.6355 6.81327 12.7134 6.86587L18.9277 11.0668C18.9999 11.1129 19.0594 11.1768 19.1006 11.2526C19.1419 11.3283 19.1635 11.4135 19.1635 11.5C19.1635 11.5865 19.1419 11.6717 19.1006 11.7474C19.0594 11.8232 18.9999 11.8871 18.9277 11.9332Z" fill="#FEA255"/>
</svg>
