<svg width="17" height="17" viewBox="0 0 17 17" fill="none" xmlns="http://www.w3.org/2000/svg">
<path d="M7.47825 12.5866C7.6237 12.733 7.70529 12.9308 7.70529 13.137C7.70529 13.3431 7.6237 13.5409 7.47825 13.6874L4.38001 16.7774C4.23196 16.9202 4.03408 17 3.82814 17C3.6222 17 3.42431 16.9202 3.27627 16.7774L0.178028 13.6874C0.0545148 13.5373 -0.00860553 13.3467 0.000944845 13.1528C0.0104952 12.9589 0.0920334 12.7754 0.229699 12.6381C0.367366 12.5008 0.551316 12.4195 0.745771 12.4099C0.940226 12.4004 1.13128 12.4634 1.28178 12.5866L3.05358 14.3633V0.776853C3.05358 0.571971 3.13518 0.375481 3.28044 0.230608C3.4257 0.0857346 3.62271 0.00434555 3.82814 0.00434555C4.03356 0.00434555 4.23058 0.0857346 4.37583 0.230608C4.52109 0.375481 4.6027 0.571971 4.6027 0.776853V14.3633L6.3745 12.5866C6.52135 12.4415 6.71969 12.3601 6.92637 12.3601C7.13306 12.3601 7.3314 12.4415 7.47825 12.5866V12.5866ZM16.773 3.31647L13.6747 0.226441C13.5279 0.0813787 13.3295 0 13.1228 0C12.9162 0 12.7178 0.0813787 12.571 0.226441L9.47274 3.31647C9.34922 3.46657 9.2861 3.65712 9.29565 3.85106C9.3052 4.045 9.38674 4.22846 9.52441 4.36576C9.66207 4.50306 9.84603 4.58438 10.0405 4.59391C10.2349 4.60343 10.426 4.54048 10.5765 4.41729L12.3483 2.64053V16.227C12.3483 16.4319 12.4299 16.6284 12.5752 16.7732C12.7204 16.9181 12.9174 16.9995 13.1228 16.9995C13.3283 16.9995 13.5253 16.9181 13.6705 16.7732C13.8158 16.6284 13.8974 16.4319 13.8974 16.227V2.64053L15.6692 4.41729C15.8173 4.56007 16.0151 4.63988 16.2211 4.63988C16.427 4.63988 16.6249 4.56007 16.773 4.41729C16.9184 4.27083 17 4.07302 17 3.86688C17 3.66074 16.9184 3.46293 16.773 3.31647V3.31647Z" fill="#7F7F7F"/>
</svg>
