<svg width="23" height="23" viewBox="0 0 23 23" fill="none" xmlns="http://www.w3.org/2000/svg">
<path d="M22.5153 5.82469L17.179 0.48948C17.0238 0.334297 16.8395 0.211198 16.6367 0.127212C16.4339 0.0432268 16.2166 0 15.9971 0C15.7776 0 15.5602 0.0432268 15.3575 0.127212C15.1547 0.211198 14.9704 0.334297 14.8152 0.48948L0.489463 14.8122C0.179294 15.1277 0.00380672 15.5514 0 15.9938V21.329C0 21.7722 0.176087 22.1972 0.489523 22.5106C0.80296 22.8239 1.22807 23 1.67134 23H7.00768C7.45019 22.9962 7.87392 22.8207 8.18955 22.5106L22.5153 8.18793C22.8259 7.87303 23 7.44856 23 7.00631C23 6.56406 22.8259 6.13959 22.5153 5.82469V5.82469ZM1.73103 15.5999L12.1769 5.1563L14.5048 7.48373L4.05896 17.9274L1.73103 15.5999ZM1.43257 21.329V17.3306L5.67061 21.5677H1.67134C1.60801 21.5677 1.54728 21.5426 1.50251 21.4978C1.45773 21.453 1.43257 21.3923 1.43257 21.329ZM7.40164 21.2693L5.0737 18.9419L15.5196 8.49826L17.8475 10.8257L7.40164 21.2693ZM21.5006 7.17341L18.8622 9.81117L13.1916 4.14177L15.83 1.504C15.8512 1.48085 15.877 1.46237 15.9058 1.44972C15.9346 1.43707 15.9657 1.43054 15.9971 1.43054C16.0285 1.43054 16.0596 1.43707 16.0884 1.44972C16.1171 1.46237 16.143 1.48085 16.1642 1.504L21.5006 6.83921C21.5237 6.86046 21.5422 6.88628 21.5549 6.91505C21.5675 6.94381 21.574 6.97489 21.574 7.00631C21.574 7.03773 21.5675 7.06881 21.5549 7.09758C21.5422 7.12634 21.5237 7.15217 21.5006 7.17341V7.17341Z" fill="#FEA255"/>
</svg>
