<svg width="31" height="31" viewBox="0 0 31 31" fill="none" xmlns="http://www.w3.org/2000/svg">
<circle cx="15.3846" cy="15.3846" r="15.3846" fill="#FEA255"/>
<path d="M21.6434 6.9231H10.3497C9.64563 6.92524 8.97099 7.20023 8.47312 7.68803C7.97525 8.17582 7.69457 8.8368 7.69238 9.52665V23.1953C7.69238 23.3679 7.76238 23.5335 7.88696 23.6555C8.01155 23.7776 8.18053 23.8462 8.35672 23.8462H20.3148C20.491 23.8462 20.6599 23.7776 20.7845 23.6555C20.9091 23.5335 20.9791 23.3679 20.9791 23.1953C20.9791 23.0227 20.9091 22.8571 20.7845 22.735C20.6599 22.613 20.491 22.5444 20.3148 22.5444H9.02105C9.02105 22.1991 9.16104 21.868 9.41021 21.6239C9.65939 21.3798 9.99734 21.2426 10.3497 21.2426H21.6434C21.8196 21.2426 21.9886 21.174 22.1132 21.052C22.2378 20.9299 22.3078 20.7644 22.3078 20.5917V7.57398C22.3078 7.40136 22.2378 7.2358 22.1132 7.11374C21.9886 6.99167 21.8196 6.9231 21.6434 6.9231ZM20.9791 19.9408H10.3497C9.88327 19.9419 9.42522 20.0625 9.02105 20.2907V9.52665C9.02105 9.18139 9.16104 8.85028 9.41021 8.60615C9.65939 8.36202 9.99734 8.22487 10.3497 8.22487H20.9791V19.9408Z" fill="#FFFEFE"/>
</svg>
