<svg width="33" height="28" viewBox="0 0 33 28" fill="none" xmlns="http://www.w3.org/2000/svg">
<path d="M30.6429 0H21.2143C20.2994 0 19.3972 0.210846 18.5789 0.615841C17.7607 1.02084 17.0489 1.60886 16.5 2.33333C15.9511 1.60886 15.2393 1.02084 14.4211 0.615841C13.6028 0.210846 12.7006 0 11.7857 0H2.35714C1.73199 0 1.13244 0.245833 0.690391 0.683417C0.248341 1.121 0 1.71449 0 2.33333V21C0 21.6188 0.248341 22.2123 0.690391 22.6499C1.13244 23.0875 1.73199 23.3333 2.35714 23.3333H11.7857C12.7223 23.3372 13.6193 23.7072 14.2816 24.3627C14.9438 25.0182 15.3176 25.9063 15.3214 26.8333C15.3214 27.1428 15.4456 27.4395 15.6666 27.6583C15.8876 27.8771 16.1874 28 16.5 28C16.8126 28 17.1124 27.8771 17.3334 27.6583C17.5544 27.4395 17.6786 27.1428 17.6786 26.8333C17.6824 25.9063 18.0562 25.0182 18.7184 24.3627C19.3807 23.7072 20.2778 23.3372 21.2143 23.3333H30.6429C31.268 23.3333 31.8676 23.0875 32.3096 22.6499C32.7517 22.2123 33 21.6188 33 21V2.33333C33 1.71449 32.7517 1.121 32.3096 0.683417C31.8676 0.245833 31.268 0 30.6429 0V0ZM11.7857 21H2.35714V2.33333H11.7857C12.7223 2.33717 13.6193 2.70715 14.2816 3.3627C14.9438 4.01825 15.3176 4.90626 15.3214 5.83333V22.1667C14.3014 21.4094 13.0608 21 11.7857 21ZM30.6429 21H21.2143C19.9392 21 18.6986 21.4094 17.6786 22.1667V5.83333C17.6824 4.90626 18.0562 4.01825 18.7184 3.3627C19.3807 2.70715 20.2778 2.33717 21.2143 2.33333H30.6429V21Z" fill="#FFFEFE"/>
</svg>
