<svg width="15" height="17" viewBox="0 0 15 17" fill="none" xmlns="http://www.w3.org/2000/svg">
<path d="M13.951 0H2.65734C1.95325 0.00214572 1.27861 0.277137 0.780737 0.764933C0.282863 1.25273 0.00219005 1.91371 0 2.60355V16.2722C0 16.4448 0.0699924 16.6104 0.19458 16.7324C0.319167 16.8545 0.488143 16.9231 0.664336 16.9231H12.6224C12.7986 16.9231 12.9675 16.8545 13.0921 16.7324C13.2167 16.6104 13.2867 16.4448 13.2867 16.2722C13.2867 16.0996 13.2167 15.934 13.0921 15.8119C12.9675 15.6899 12.7986 15.6213 12.6224 15.6213H1.32867C1.32867 15.276 1.46866 14.9449 1.71783 14.7008C1.967 14.4567 2.30496 14.3195 2.65734 14.3195H13.951C14.1272 14.3195 14.2962 14.251 14.4208 14.1289C14.5454 14.0068 14.6154 13.8413 14.6154 13.6686V0.650888C14.6154 0.478261 14.5454 0.312706 14.4208 0.190641C14.2962 0.0685754 14.1272 0 13.951 0ZM13.2867 13.0178H2.65734C2.19089 13.0188 1.73284 13.1394 1.32867 13.3676V2.60355C1.32867 2.2583 1.46866 1.92719 1.71783 1.68306C1.967 1.43893 2.30496 1.30178 2.65734 1.30178H13.2867V13.0178Z" fill="black"/>
</svg>
