<svg width="23" height="23" viewBox="0 0 23 23" fill="none" xmlns="http://www.w3.org/2000/svg">
<path d="M23 11.5C23 13.7745 22.3255 15.9979 21.0619 17.8891C19.7983 19.7802 18.0022 21.2542 15.9009 22.1246C13.7995 22.995 11.4872 23.2228 9.25646 22.779C7.02568 22.3353 4.97658 21.24 3.36828 19.6317C1.75997 18.0234 0.664704 15.9743 0.220974 13.7435C-0.222756 11.5128 0.00498277 9.20049 0.87539 7.09914C1.7458 4.99779 3.21978 3.20173 5.11095 1.9381C7.00211 0.674463 9.22552 0 11.5 0C14.5482 0.00584507 17.4699 1.21933 19.6253 3.37473C21.7807 5.53013 22.9942 8.4518 23 11.5ZM21.2308 11.5C21.2308 9.57543 20.6601 7.69409 19.5908 6.09387C18.5216 4.49366 17.0019 3.24644 15.2238 2.50994C13.4457 1.77344 11.4892 1.58074 9.60162 1.9562C7.71404 2.33167 5.98018 3.25843 4.61931 4.61931C3.25844 5.98018 2.33167 7.71403 1.95621 9.60162C1.58075 11.4892 1.77345 13.4457 2.50995 15.2238C3.24644 17.0019 4.49366 18.5216 6.09388 19.5908C7.69409 20.6601 9.57544 21.2308 11.5 21.2308C14.0799 21.2278 16.5532 20.2017 18.3775 18.3775C20.2017 16.5532 21.2278 14.0799 21.2308 11.5Z" fill="#200F00"/>
</svg>
