<svg width="22" height="12" viewBox="0 0 22 12" fill="none" xmlns="http://www.w3.org/2000/svg">
<path d="M1.43791 0.00239829C1.81818 0.00398904 2.18277 0.148832 2.45394 0.406049L11.0005 8.65206L19.5471 0.406051C19.8166 0.14606 20.182 -4.09434e-07 20.5631 -3.76119e-07C20.9442 -3.42803e-07 21.3097 0.146061 21.5791 0.406051C21.8486 0.666042 22 1.01866 22 1.38635C22 1.75403 21.8486 2.10665 21.5791 2.36664L12.0165 11.5929C11.8833 11.722 11.7249 11.8243 11.5506 11.8942C11.3762 11.964 11.1893 12 11.0005 12C10.8117 12 10.6248 11.964 10.4504 11.8942C10.2761 11.8243 10.1178 11.722 9.98449 11.5929L0.421887 2.36664C0.288163 2.23807 0.182061 2.08529 0.109664 1.91707C0.0372676 1.74885 9.05926e-07 1.56849 9.2185e-07 1.38634C9.37774e-07 1.2042 0.0372676 1.02384 0.109664 0.855622C0.182061 0.687401 0.288164 0.534623 0.421887 0.406049C0.693061 0.148832 1.05764 0.00398897 1.43791 0.00239829V0.00239829Z" fill="#200F00"/>
</svg>
