<svg width="31" height="31" viewBox="0 0 31 31" fill="none" xmlns="http://www.w3.org/2000/svg">
<circle cx="15.6151" cy="15.3846" r="15.3846" fill="#FEA255"/>
<path d="M20.5452 6.9231H9.91586C9.38795 6.92524 8.88229 7.13165 8.50901 7.49738C8.13572 7.86312 7.92504 8.35854 7.92285 8.87576V21.8935C7.92504 22.4107 8.13572 22.9062 8.50901 23.2719C8.88229 23.6376 9.38795 23.844 9.91586 23.8462H20.5452C21.0731 23.844 21.5788 23.6376 21.9521 23.2719C22.3254 22.9062 22.536 22.4107 22.5382 21.8935V8.87576C22.536 8.35854 22.3254 7.86312 21.9521 7.49738C21.5788 7.13165 21.0731 6.92524 20.5452 6.9231ZM9.25152 10.8284H21.2096V19.9408H9.25152V10.8284ZM9.91586 8.22487H20.5452C20.7214 8.22487 20.8904 8.29345 21.015 8.41551C21.1396 8.53758 21.2096 8.70313 21.2096 8.87576V9.52665H9.25152V8.87576C9.25152 8.70313 9.32152 8.53758 9.4461 8.41551C9.57069 8.29345 9.73967 8.22487 9.91586 8.22487ZM20.5452 22.5444H9.91586C9.73967 22.5444 9.57069 22.4758 9.4461 22.3538C9.32152 22.2317 9.25152 22.0661 9.25152 21.8935V21.2426H21.2096V21.8935C21.2096 22.0661 21.1396 22.2317 21.015 22.3538C20.8904 22.4758 20.7214 22.5444 20.5452 22.5444Z" fill="#FFFEFE"/>
</svg>
