<svg width="15" height="17" viewBox="0 0 15 17" fill="none" xmlns="http://www.w3.org/2000/svg">
<path d="M12.6224 0H1.99301C1.4651 0.00214172 0.959442 0.208556 0.586153 0.574288C0.212865 0.94002 0.00218597 1.43544 0 1.95266V14.9704C0.00218597 15.4876 0.212865 15.9831 0.586153 16.3488C0.959442 16.7145 1.4651 16.9209 1.99301 16.9231H12.6224C13.1503 16.9209 13.6559 16.7145 14.0292 16.3488C14.4025 15.9831 14.6132 15.4876 14.6154 14.9704V1.95266C14.6132 1.43544 14.4025 0.94002 14.0292 0.574288C13.6559 0.208556 13.1503 0.00214172 12.6224 0ZM1.32867 3.90533H13.2867V13.0178H1.32867V3.90533ZM1.99301 1.30178H12.6224C12.7986 1.30178 12.9675 1.37035 13.0921 1.49242C13.2167 1.61448 13.2867 1.78004 13.2867 1.95266V2.60355H1.32867V1.95266C1.32867 1.78004 1.39866 1.61448 1.52325 1.49242C1.64784 1.37035 1.81681 1.30178 1.99301 1.30178ZM12.6224 15.6213H1.99301C1.81681 15.6213 1.64784 15.5527 1.52325 15.4307C1.39866 15.3086 1.32867 15.143 1.32867 14.9704V14.3195H13.2867V14.9704C13.2867 15.143 13.2167 15.3086 13.0921 15.4307C12.9675 15.5527 12.7986 15.6213 12.6224 15.6213Z" fill="black"/>
</svg>
