<svg width="23" height="23" viewBox="0 0 23 23" fill="none" xmlns="http://www.w3.org/2000/svg">
<path d="M23 11.5035C22.9943 14.3307 21.9631 17.0587 20.0999 19.1751C18.2367 21.2915 15.6698 22.6508 12.8811 22.9978C12.8189 23.0039 12.7561 22.997 12.6966 22.9776C12.6371 22.9581 12.5823 22.9265 12.5356 22.8847C12.4888 22.8429 12.4512 22.7918 12.425 22.7347C12.3988 22.6776 12.3847 22.6156 12.3835 22.5527V14.174H15.0376C15.1586 14.1742 15.2783 14.1495 15.3894 14.1013C15.5006 14.0531 15.6007 13.9825 15.6836 13.8939C15.7665 13.8053 15.8305 13.7004 15.8715 13.5859C15.9126 13.4714 15.9299 13.3497 15.9223 13.2282C15.9027 12.998 15.7971 12.7839 15.6268 12.629C15.4564 12.4741 15.234 12.39 15.0044 12.3936H12.3835V9.72313C12.3835 9.25096 12.5699 8.79812 12.9017 8.46424C13.2336 8.13037 13.6836 7.94279 14.1529 7.94279H15.9223C16.0433 7.94303 16.163 7.9183 16.2742 7.87013C16.3853 7.82195 16.4854 7.75136 16.5683 7.66272C16.6512 7.57407 16.7152 7.46926 16.7562 7.35475C16.7973 7.24025 16.8146 7.11848 16.807 6.99699C16.7875 6.76681 16.6818 6.55267 16.5115 6.39779C16.3411 6.2429 16.1187 6.1588 15.8891 6.16246H14.1529C13.2143 6.16246 12.3142 6.5376 11.6506 7.20536C10.9869 7.87311 10.614 8.77878 10.614 9.72313V12.3936H7.95992C7.83893 12.3934 7.71918 12.4181 7.60807 12.4663C7.49697 12.5145 7.39686 12.5851 7.31394 12.6737C7.23102 12.7624 7.16705 12.8672 7.12599 12.9817C7.08493 13.0962 7.06764 13.2179 7.0752 13.3394C7.09478 13.5696 7.2004 13.7838 7.37075 13.9386C7.54111 14.0935 7.76352 14.1776 7.99309 14.174H10.614V22.5527C10.6144 22.6151 10.6016 22.6768 10.5767 22.734C10.5517 22.7911 10.5151 22.8423 10.4693 22.8843C10.4234 22.9262 10.3692 22.958 10.3104 22.9776C10.2515 22.9971 10.1892 23.004 10.1275 22.9978C4.28837 22.2856 -0.22366 17.1783 0.00857695 11.0695C0.138942 8.05271 1.43612 5.20667 3.62321 3.1389C5.81031 1.07112 8.71407 -0.0545977 11.7147 0.00203799C14.7153 0.0586737 17.575 1.29317 19.6835 3.44203C21.792 5.59089 22.9822 8.48387 23 11.5035V11.5035Z" fill="#FEA255"/>
</svg>
