<svg width="21" height="17" viewBox="0 0 21 17" fill="none" xmlns="http://www.w3.org/2000/svg">
<path d="M12.25 13.4211C12.25 13.6584 12.1578 13.8859 11.9937 14.0537C11.8296 14.2215 11.6071 14.3158 11.375 14.3158H0.875C0.642936 14.3158 0.420376 14.2215 0.256282 14.0537C0.0921874 13.8859 0 13.6584 0 13.4211C0 13.1838 0.0921874 12.9562 0.256282 12.7884C0.420376 12.6206 0.642936 12.5263 0.875 12.5263H11.375C11.6071 12.5263 11.8296 12.6206 11.9937 12.7884C12.1578 12.9562 12.25 13.1838 12.25 13.4211ZM20.125 12.5263H15.75V10.7368C15.75 10.4995 15.6578 10.272 15.4937 10.1042C15.3296 9.93637 15.1071 9.84211 14.875 9.84211C14.6429 9.84211 14.4204 9.93637 14.2563 10.1042C14.0922 10.272 14 10.4995 14 10.7368V16.1053C14 16.3426 14.0922 16.5701 14.2563 16.7379C14.4204 16.9057 14.6429 17 14.875 17C15.1071 17 15.3296 16.9057 15.4937 16.7379C15.6578 16.5701 15.75 16.3426 15.75 16.1053V14.3158H20.125C20.3571 14.3158 20.5796 14.2215 20.7437 14.0537C20.9078 13.8859 21 13.6584 21 13.4211C21 13.1838 20.9078 12.9562 20.7437 12.7884C20.5796 12.6206 20.3571 12.5263 20.125 12.5263ZM0.875 4.47368H4.375C4.60706 4.47368 4.82962 4.37942 4.99372 4.21162C5.15781 4.04383 5.25 3.81625 5.25 3.57895C5.25 3.34165 5.15781 3.11407 4.99372 2.94627C4.82962 2.77848 4.60706 2.68421 4.375 2.68421H0.875C0.642936 2.68421 0.420376 2.77848 0.256282 2.94627C0.0921874 3.11407 0 3.34165 0 3.57895C0 3.81625 0.0921874 4.04383 0.256282 4.21162C0.420376 4.37942 0.642936 4.47368 0.875 4.47368ZM7.875 7.15789C8.10706 7.15789 8.32962 7.06363 8.49372 6.89583C8.65781 6.72804 8.75 6.50046 8.75 6.26316V4.47368H20.125C20.3571 4.47368 20.5796 4.37942 20.7437 4.21162C20.9078 4.04383 21 3.81625 21 3.57895C21 3.34165 20.9078 3.11407 20.7437 2.94627C20.5796 2.77848 20.3571 2.68421 20.125 2.68421H8.75V0.894737C8.75 0.657438 8.65781 0.429858 8.49372 0.262063C8.32962 0.0942668 8.10706 0 7.875 0C7.64294 0 7.42038 0.0942668 7.25628 0.262063C7.09219 0.429858 7 0.657438 7 0.894737V6.26316C7 6.50046 7.09219 6.72804 7.25628 6.89583C7.42038 7.06363 7.64294 7.15789 7.875 7.15789Z" fill="#7F7F7F"/>
</svg>
