<svg width="29" height="28" viewBox="0 0 29 28" fill="none" xmlns="http://www.w3.org/2000/svg">
<path d="M28.9187 23.9188L27.7281 19.4784L22.98 1.70247C22.822 1.11368 22.4371 0.611853 21.9099 0.307338C21.3826 0.00282375 20.7562 -0.0794429 20.1685 0.0786295L15.736 1.27136L15.5925 1.31447C15.3787 1.03349 15.1032 0.805653 14.7872 0.648646C14.4713 0.491638 14.1235 0.409684 13.7708 0.409145H9.18052C8.77672 0.410232 8.38054 0.519378 8.03296 0.72529C7.68538 0.519378 7.2892 0.410232 6.88539 0.409145H2.29513C1.68642 0.409145 1.10265 0.651385 0.672228 1.08258C0.241808 1.51377 0 2.09859 0 2.70838V25.7008C0 26.3106 0.241808 26.8954 0.672228 27.3266C1.10265 27.7578 1.68642 28 2.29513 28H6.88539C7.2892 27.9989 7.68538 27.8898 8.03296 27.6838C8.38054 27.8898 8.77672 27.9989 9.18052 28H13.7708C14.3795 28 14.9633 27.7578 15.3937 27.3266C15.8241 26.8954 16.0659 26.3106 16.0659 25.7008V11.388L18.8631 21.8495L20.0537 26.2899C20.1837 26.781 20.4723 27.2151 20.8745 27.5245C21.2768 27.8339 21.77 28.0011 22.2771 28C22.4751 27.9965 22.6722 27.9725 22.8652 27.9281L27.2977 26.7354C27.5893 26.657 27.8624 26.5213 28.1013 26.3363C28.3402 26.1513 28.54 25.9206 28.6891 25.6576C28.8421 25.3982 28.9413 25.1104 28.9807 24.8117C29.0201 24.5129 28.999 24.2093 28.9187 23.9188V23.9188ZM17.816 9.04566L22.2484 7.85293L25.2178 18.9611L20.7853 20.1538L17.816 9.04566ZM20.7566 2.30602L21.6603 5.62554L17.2278 6.81827L16.3241 3.49875L20.7566 2.30602ZM13.7708 2.70838V19.9527H9.18052V2.70838H13.7708ZM6.88539 2.70838V6.15724H2.29513V2.70838H6.88539ZM2.29513 25.7008V8.45648H6.88539V25.7008H2.29513ZM13.7708 25.7008H9.18052V22.2519H13.7708V25.7008ZM26.7096 24.508L22.2771 25.7008L21.3734 22.3669L25.8202 21.1741L26.7096 24.508V24.508Z" fill="#FFFEFE"/>
</svg>
