<svg width="32" height="31" viewBox="0 0 32 31" fill="none" xmlns="http://www.w3.org/2000/svg">
<circle cx="15.9998" cy="15.3846" r="15.3846" fill="#FEA255"/>
<path d="M23.0597 9.70113C22.1333 8.80848 21.0313 8.103 19.8182 7.62605C18.6051 7.1491 17.3054 6.91029 15.9952 6.92362H15.9284C13.2952 6.92362 10.7699 7.93135 8.90796 9.72512C7.04602 11.5189 6 13.9518 6 16.4885V21.6389C6.00251 22.2235 6.24471 22.7836 6.67384 23.197C7.10298 23.6104 7.68429 23.8438 8.29117 23.8462H9.81861C10.4255 23.8438 11.0068 23.6104 11.4359 23.197C11.8651 22.7836 12.1073 22.2235 12.1098 21.6389V17.9601C12.1073 17.3754 11.8651 16.8154 11.4359 16.402C11.0068 15.9885 10.4255 15.7552 9.81861 15.7528H7.56563C7.75282 13.7299 8.72437 11.8492 10.2866 10.4856C11.8489 9.12196 13.8872 8.37556 15.9952 8.39515H16.0048C18.1115 8.37983 20.1474 9.12769 21.7087 10.4905C23.2701 11.8533 24.2429 13.7315 24.4344 15.7528H22.1814C21.5737 15.7528 20.991 15.9853 20.5613 16.3993C20.1316 16.8132 19.8902 17.3747 19.8902 17.9601V21.6389C19.8902 22.2243 20.1316 22.7857 20.5613 23.1997C20.991 23.6136 21.5737 23.8462 22.1814 23.8462H23.7088C24.3157 23.8438 24.897 23.6104 25.3261 23.197C25.7553 22.7836 25.9975 22.2235 26 21.6389V16.4885C26.0017 15.2259 25.7426 13.9755 25.2378 12.8102C24.733 11.6449 23.9925 10.5881 23.0597 9.70113ZM9.81861 17.2243C10.0212 17.2243 10.2154 17.3018 10.3586 17.4398C10.5019 17.5778 10.5823 17.7649 10.5823 17.9601V21.6389C10.5823 21.834 10.5019 22.0212 10.3586 22.1591C10.2154 22.2971 10.0212 22.3746 9.81861 22.3746H8.29117C8.08862 22.3746 7.89436 22.2971 7.75114 22.1591C7.60791 22.0212 7.52745 21.834 7.52745 21.6389V17.2243H9.81861ZM24.4725 21.6389C24.4725 21.834 24.3921 22.0212 24.2489 22.1591C24.1056 22.2971 23.9114 22.3746 23.7088 22.3746H22.1814C21.9788 22.3746 21.7846 22.2971 21.6413 22.1591C21.4981 22.0212 21.4177 21.834 21.4177 21.6389V17.9601C21.4177 17.7649 21.4981 17.5778 21.6413 17.4398C21.7846 17.3018 21.9788 17.2243 22.1814 17.2243H24.4725V21.6389Z" fill="#FFFEFE"/>
</svg>
