<svg width="23" height="23" viewBox="0 0 23 23" fill="none" xmlns="http://www.w3.org/2000/svg">
<path d="M10.0635 15.8129C10.0635 15.4317 10.2149 15.066 10.4846 14.7964C10.7542 14.5268 11.1198 14.3753 11.5011 14.3753C11.8824 14.3753 12.2481 14.5268 12.5177 14.7964C12.7873 15.066 12.9388 15.4317 12.9388 15.8129C12.9388 16.1942 12.7873 16.5599 12.5177 16.8295C12.2481 17.0991 11.8824 17.2506 11.5011 17.2506C11.1198 17.2506 10.7542 17.0991 10.4846 16.8295C10.2149 16.5599 10.0635 16.1942 10.0635 15.8129V15.8129ZM10.2058 7.17989C10.1867 6.99852 10.2059 6.81515 10.2622 6.64168C10.3185 6.46821 10.4106 6.30851 10.5326 6.17295C10.6546 6.03739 10.8038 5.92899 10.9704 5.85479C11.137 5.78059 11.3173 5.74225 11.4997 5.74225C11.6821 5.74225 11.8624 5.78059 12.029 5.85479C12.1956 5.92899 12.3448 6.03739 12.4668 6.17295C12.5888 6.30851 12.6809 6.46821 12.7372 6.64168C12.7935 6.81515 12.8127 6.99852 12.7936 7.17989L12.2904 12.2217C12.2699 12.4172 12.1778 12.5981 12.0318 12.7297C11.8858 12.8612 11.6962 12.934 11.4997 12.934C11.3032 12.934 11.1136 12.8612 10.9676 12.7297C10.8215 12.5981 10.7294 12.4172 10.709 12.2217L10.2058 7.17989Z" fill="#200F00"/>
<path d="M14.7678 3.61164L13.4437 2.25451L14.4716 1.25103L15.3658 2.16681L16.6453 2.151C17.1992 2.14444 17.7488 2.2487 18.2617 2.45763C18.7747 2.66656 19.2407 2.97596 19.6324 3.36762C20.024 3.75928 20.3334 4.2253 20.5424 4.73827C20.7513 5.25125 20.8556 5.80082 20.849 6.35467L20.8346 7.63417L21.749 8.52839C22.145 8.91536 22.4597 9.37758 22.6745 9.88789C22.8893 10.3982 23 10.9463 23 11.5C23 12.0537 22.8893 12.6018 22.6745 13.1121C22.4597 13.6224 22.145 14.0846 21.749 14.4716L20.8332 15.3658L20.849 16.6453C20.8556 17.1992 20.7513 17.7488 20.5424 18.2617C20.3334 18.7747 20.024 19.2407 19.6324 19.6324C19.2407 20.024 18.7747 20.3334 18.2617 20.5424C17.7488 20.7513 17.1992 20.8556 16.6453 20.849L15.3658 20.8346L14.4716 21.749C14.0846 22.145 13.6224 22.4597 13.1121 22.6745C12.6018 22.8893 12.0537 23 11.5 23C10.9463 23 10.3982 22.8893 9.88789 22.6745C9.37758 22.4597 8.91536 22.145 8.52839 21.749L7.63417 20.8332L6.35467 20.849C5.80082 20.8556 5.25125 20.7513 4.73827 20.5424C4.2253 20.3334 3.75928 20.024 3.36762 19.6324C2.97596 19.2407 2.66656 18.7747 2.45763 18.2617C2.2487 17.7488 2.14444 17.1992 2.151 16.6453L2.16537 15.3658L1.25103 14.4716C0.855018 14.0846 0.540347 13.6224 0.325509 13.1121C0.110671 12.6018 0 12.0537 0 11.5C0 10.9463 0.110671 10.3982 0.325509 9.88789C0.540347 9.37758 0.855018 8.91536 1.25103 8.52839L2.16681 7.63417L2.151 6.35467C2.14444 5.80082 2.2487 5.25125 2.45763 4.73827C2.66656 4.2253 2.97596 3.75928 3.36762 3.36762C3.75928 2.97596 4.2253 2.66656 4.73827 2.45763C5.25125 2.2487 5.80082 2.14444 6.35467 2.151L7.63417 2.16537L8.52839 1.25103C8.91536 0.855018 9.37758 0.540347 9.88789 0.325509C10.3982 0.110671 10.9463 0 11.5 0C12.0537 0 12.6018 0.110671 13.1121 0.325509C13.6224 0.540347 14.0846 0.855018 14.4716 1.25103L13.4437 2.25451C13.1906 1.99542 12.8883 1.78955 12.5545 1.64899C12.2207 1.50844 11.8622 1.43603 11.5 1.43603C11.1378 1.43603 10.7793 1.50844 10.4455 1.64899C10.1117 1.78955 9.80939 1.99542 9.5563 2.25451L8.23367 3.61164L6.33598 3.58864C5.97395 3.58459 5.61476 3.65294 5.27952 3.78966C4.94427 3.92639 4.63973 4.12873 4.38379 4.38481C4.12784 4.64089 3.92566 4.94553 3.78911 5.28085C3.65256 5.61617 3.5844 5.97539 3.58864 6.33742L3.61164 8.23223L2.25451 9.5563C1.99542 9.80939 1.78955 10.1117 1.64899 10.4455C1.50844 10.7793 1.43603 11.1378 1.43603 11.5C1.43603 11.8622 1.50844 12.2207 1.64899 12.5545C1.78955 12.8883 1.99542 13.1906 2.25451 13.4437L3.61164 14.7663L3.58864 16.664C3.58459 17.026 3.65294 17.3852 3.78966 17.7205C3.92639 18.0557 4.12873 18.3603 4.38481 18.6162C4.64089 18.8722 4.94553 19.0743 5.28085 19.2109C5.61617 19.3474 5.97539 19.4156 6.33742 19.4114L8.23223 19.3884L9.5563 20.7455C9.80939 21.0046 10.1117 21.2104 10.4455 21.351C10.7793 21.4916 11.1378 21.564 11.5 21.564C11.8622 21.564 12.2207 21.4916 12.5545 21.351C12.8883 21.2104 13.1906 21.0046 13.4437 20.7455L14.7663 19.3884L16.664 19.4114C17.026 19.4154 17.3852 19.3471 17.7205 19.2103C18.0557 19.0736 18.3603 18.8713 18.6162 18.6152C18.8722 18.3591 19.0743 18.0545 19.2109 17.7192C19.3474 17.3838 19.4156 17.0246 19.4114 16.6626L19.3884 14.7678L20.7455 13.4437C21.0046 13.1906 21.2104 12.8883 21.351 12.5545C21.4916 12.2207 21.564 11.8622 21.564 11.5C21.564 11.1378 21.4916 10.7793 21.351 10.4455C21.2104 10.1117 21.0046 9.80939 20.7455 9.5563L19.3884 8.23367L19.4114 6.33598C19.4154 5.97395 19.3471 5.61476 19.2103 5.27952C19.0736 4.94427 18.8713 4.63973 18.6152 4.38379C18.3591 4.12784 18.0545 3.92566 17.7192 3.78911C17.3838 3.65256 17.0246 3.5844 16.6626 3.58864L14.7678 3.61164V3.61164Z" fill="#200F00"/>
</svg>
