<svg width="115" height="20" viewBox="0 0 115 20" fill="none" xmlns="http://www.w3.org/2000/svg">
<path d="M10.2574 0L12.5603 6.90983H20.0127L13.9836 11.1803L16.2865 18.0902L10.2574 13.8197L4.22823 18.0902L6.53115 11.1803L0.50203 6.90983H7.95443L10.2574 0Z" fill="#200F00"/>
<path d="M34.1909 0L36.4939 6.90983H43.9463L37.9171 11.1803L40.2201 18.0902L34.1909 13.8197L28.1618 18.0902L30.4647 11.1803L24.4356 6.90983H31.888L34.1909 0Z" fill="#200F00"/>
<path d="M58.125 0L60.4279 6.90983H67.8804L61.8512 11.1803L64.1542 18.0902L58.125 13.8197L52.0959 18.0902L54.3988 11.1803L48.3697 6.90983H55.8221L58.125 0Z" fill="#200F00"/>
<path d="M82.0586 0L84.3615 6.90983H91.8139L85.7848 11.1803L88.0877 18.0902L82.0586 13.8197L76.0295 18.0902L78.3324 11.1803L72.3033 6.90983H79.7557L82.0586 0Z" fill="#200F00"/>
<path d="M104.257 0L106.56 6.90983H114.013L107.984 11.1803L110.286 18.0902L104.257 13.8197L98.2282 18.0902L100.531 11.1803L94.502 6.90983H101.954L104.257 0Z" fill="#200F00"/>
</svg>
