<svg width="27" height="23" viewBox="0 0 27 23" fill="none" xmlns="http://www.w3.org/2000/svg">
<path d="M26 21H25V1C25 0.734784 24.8946 0.48043 24.7071 0.292893C24.5196 0.105357 24.2652 0 24 0H17C16.7348 0 16.4804 0.105357 16.2929 0.292893C16.1054 0.48043 16 0.734784 16 1V6H10C9.73478 6 9.48043 6.10536 9.29289 6.29289C9.10536 6.48043 9 6.73478 9 7V12H3C2.73478 12 2.48043 12.1054 2.29289 12.2929C2.10536 12.4804 2 12.7348 2 13V21H1C0.734784 21 0.48043 21.1054 0.292893 21.2929C0.105357 21.4804 0 21.7348 0 22C0 22.2652 0.105357 22.5196 0.292893 22.7071C0.48043 22.8946 0.734784 23 1 23H26C26.2652 23 26.5196 22.8946 26.7071 22.7071C26.8946 22.5196 27 22.2652 27 22C27 21.7348 26.8946 21.4804 26.7071 21.2929C26.5196 21.1054 26.2652 21 26 21ZM11 8H16V21H11V8ZM4 14H9V21H4V14ZM18 21V2H23V21H18Z" fill="#200F00"/>
</svg>
